<svg width="867" height="674" viewBox="0 0 867 674" fill="none" xmlns="http://www.w3.org/2000/svg">
<g clip-path="url(#clip0_101_43)">
<path d="M113.109 296.152C80.8356 282.596 54.9644 257.217 40.7912 225.21C32.8614 207.079 28.9899 187.417 26.7856 167.751C24.623 148.457 24.1814 128.104 32.485 110.554C37.0314 100.945 43.9896 92.6778 52.6814 86.5578C61.3732 80.4378 71.5022 76.6738 82.0813 75.6327C92.6604 74.5916 103.329 76.3088 113.047 80.6171C122.765 84.9253 131.201 91.6777 137.534 100.216C142.984 107.565 146.816 116.383 146.914 125.533C147.119 144.723 131.688 160.125 124.918 178.083C117.922 196.641 120.444 217.204 121.633 237.001C122.822 256.798 122.069 278.26 110.056 294.042" fill="#F2F2F2"/>
<path d="M691.926 538.817C726.008 530.834 755.749 510.125 775.062 480.93C785.905 464.376 793.002 445.635 798.455 426.612C803.806 407.948 807.636 387.954 802.375 369.265C799.495 359.033 794.013 349.721 786.464 342.237C778.915 334.753 769.556 329.352 759.298 326.561C749.041 323.77 738.235 323.684 727.935 326.311C717.634 328.938 708.19 334.189 700.523 341.552C693.923 347.889 688.674 355.944 687.051 364.949C683.648 383.837 696.295 401.596 699.974 420.432C703.776 439.897 697.861 459.751 693.386 479.073C688.912 498.394 686.075 519.682 695.287 537.245" fill="#F2F2F2"/>
<path d="M432 508C383.42 508.154 336.155 492.223 297.579 462.693C259.81 433.837 232.216 393.697 218.802 348.098L220.723 347.539C247.851 440.839 334.731 506 432 506C461.083 506.055 489.885 500.308 516.721 489.096L517.491 490.941C490.412 502.256 461.348 508.055 432 508V508Z" fill="#00AF66"/>
<path d="M642.006 220.246C613.148 127.987 528.754 66 432 66C403.329 65.948 374.928 71.5324 348.412 82.4355L347.651 80.5859C383.122 66.0588 421.747 60.9491 459.775 65.7527C497.804 70.5564 533.945 85.1102 564.689 108.001C602.107 136.033 629.81 175.075 643.915 219.649L642.006 220.246Z" fill="#00AF66"/>
<path d="M702 578C611.019 578 537 503.981 537 413C537 322.019 611.019 248 702 248C792.981 248 867 322.019 867 413C867 503.981 792.981 578 702 578ZM702 250C612.122 250 539 323.122 539 413C539 502.879 612.122 576 702 576C791.878 576 865 502.879 865 413C865 323.122 791.878 250 702 250Z" fill="#3F3D56"/>
<path d="M165 330C74.0185 330 0 255.981 0 165C0 74.0185 74.0185 0 165 0C255.981 0 330 74.0185 330 165C330 255.981 255.981 330 165 330ZM165 2C75.1216 2 2 75.1216 2 165C2 254.878 75.1216 328 165 328C254.878 328 328 254.878 328 165C328 75.1216 254.878 2 165 2V2Z" fill="#3F3D56"/>
<path d="M152.171 165.928L137.6 194.226L151.987 202.474C151.987 202.474 161.857 170.687 162.147 169.481C163.635 168.872 164.904 167.827 165.785 166.482C166.666 165.137 167.118 163.556 167.081 161.949C167.044 160.342 166.52 158.784 165.578 157.481C164.637 156.178 163.322 155.191 161.807 154.652C160.293 154.113 158.65 154.046 157.097 154.46C155.543 154.875 154.153 155.751 153.108 156.973C152.064 158.195 151.415 159.706 151.247 161.305C151.08 162.904 151.402 164.516 152.171 165.928V165.928Z" fill="#A0616A"/>
<path d="M77.3954 169.777C83.8949 193.857 107.257 209.152 126.656 227.488C129.045 228.326 131.582 228.656 134.106 228.458C136.63 228.26 139.085 227.537 141.313 226.336C143.542 225.135 145.495 223.483 147.049 221.484C148.602 219.485 149.722 217.184 150.335 214.727L156.874 189.139L140.255 188.695L133.378 196.169L111.125 180.312L77.3954 169.777Z" fill="#00AF66"/>
<path d="M677.47 438.638C680.292 438.823 682.93 440.101 684.823 442.201C686.717 444.301 687.716 447.057 687.609 449.883C687.578 450.457 687.499 451.027 687.374 451.588L719.416 471.774L701.701 479.609L673.99 459.239C671.704 458.54 669.713 457.104 668.328 455.155C666.944 453.206 666.243 450.854 666.336 448.465C666.402 447.106 666.735 445.774 667.316 444.544C667.897 443.313 668.715 442.21 669.722 441.296C670.73 440.381 671.908 439.675 673.188 439.216C674.469 438.757 675.827 438.554 677.186 438.62C677.281 438.625 677.376 438.631 677.47 438.638Z" fill="#FFB6B6"/>
<path d="M708.368 462.599L700.427 478.984L731.825 499.189C734.059 500.639 736.627 501.494 739.285 501.672C741.942 501.85 744.601 501.345 747.009 500.206V500.206C749.936 498.805 752.328 496.491 753.825 493.612C755.322 490.733 755.843 487.445 755.309 484.244L745.121 426.08C744.437 422.009 742.219 418.356 738.924 415.871C735.628 413.386 731.506 412.258 727.405 412.719V412.719C723.37 413.16 719.676 415.186 717.135 418.351C714.594 421.515 713.414 425.56 713.855 429.595C713.873 429.753 713.892 429.91 713.914 430.067C713.992 430.626 714.099 431.181 714.235 431.728L725.358 473.093L708.368 462.599Z" fill="#00AF66"/>
<path d="M679.831 469.242L668.007 438.733C667.604 437.689 667.631 436.527 668.083 435.503C668.535 434.479 669.375 433.676 670.419 433.27L677.068 430.693C678.112 430.29 679.274 430.317 680.298 430.769C681.322 431.221 682.125 432.061 682.531 433.104L694.355 463.613C694.758 464.658 694.731 465.819 694.279 466.844C693.827 467.868 692.987 468.671 691.944 469.076L685.294 471.653C684.25 472.057 683.088 472.029 682.064 471.577C681.04 471.125 680.237 470.286 679.831 469.242Z" fill="#3F3D56"/>
<path d="M671.8 434.525C671.238 434.743 670.785 435.176 670.541 435.728C670.298 436.28 670.283 436.906 670.5 437.469L682.324 467.978C682.543 468.54 682.976 468.993 683.528 469.236C684.08 469.48 684.705 469.494 685.268 469.277L691.918 466.7C692.48 466.481 692.932 466.049 693.176 465.497C693.42 464.945 693.434 464.319 693.217 463.756L681.393 433.247C681.174 432.685 680.742 432.232 680.19 431.989C679.638 431.745 679.012 431.73 678.449 431.948L671.8 434.525Z" fill="#0081A6"/>
<path d="M706.136 532.903H751.04V488H706.136V532.903Z" fill="#FFB8B8"/>
<path d="M599.649 620.243L582.5 614.473L572.95 661.153L584.57 665.062L599.649 620.243Z" fill="#FFB6B6"/>
<path d="M630.062 611.362L612.454 615.526L629.013 660.202L640.944 657.38L630.062 611.362Z" fill="#FFB6B6"/>
<path d="M749.429 544.634C758.429 604.634 638.578 569.161 638.578 569.161L601 621L579 617C579 617 588.899 585.88 606.578 544.161C614.429 525.634 703.578 530.161 703.578 530.161L705.429 515.634L756.429 514.634L749.429 544.634Z" fill="#2F2E41"/>
<path d="M634.795 556.289L602.154 557.04C607.387 602.046 612 620 612 620L631 614L634.795 556.289Z" fill="#2F2E41"/>
<path d="M723.777 415.032L732.815 403.414L745.708 402.855L746.995 413.782L753.383 416.727C759.762 440.961 760.747 466.299 756.269 490.954C755.413 491.76 754.787 492.78 754.457 493.909C754.126 495.037 754.103 496.234 754.389 497.374L754.803 499.025L754.765 499.086C753.405 501.231 752.944 503.824 753.481 506.306V506.306L756.531 511.727C757.626 513.677 758.283 515.841 758.457 518.07C758.63 520.299 758.316 522.54 757.536 524.635C756.757 526.73 755.53 528.631 753.941 530.204C752.352 531.777 750.44 532.986 748.337 533.745C729.584 540.542 712.005 543.074 699 524L694.911 457.53L723.777 415.032Z" fill="#00AF66"/>
<path d="M733.245 406.499C746.411 406.499 757.083 395.827 757.083 382.662C757.083 369.496 746.411 358.824 733.245 358.824C720.08 358.824 709.408 369.496 709.408 382.662C709.408 395.827 720.08 406.499 733.245 406.499Z" fill="#FFB8B8"/>
<path d="M745.212 353.925C755.305 354.119 763.311 363.482 763.092 374.837C770.562 382.63 768.092 392.167 761.851 402.365C750.434 403.69 747.769 404.242 737.757 408.325L736.438 402.161L733.448 410.188C730.904 411.361 728.378 412.649 725.872 414.051C724.072 405.791 724.518 397.761 729.358 390.767C733.659 384.554 723.194 377.178 715.71 378.22L715.82 372.514L713.94 378.186C711.023 380.33 707.795 379.554 704.486 378.005V378.005C699.12 350.115 740.666 342.489 745.212 353.925Z" fill="#2F2E41"/>
<path d="M589.852 672.957L582.212 671.959L581.79 664.568L577.355 671.325L557.091 668.678C556.119 668.551 555.214 668.117 554.507 667.439C553.8 666.761 553.328 665.875 553.16 664.91C552.992 663.945 553.137 662.952 553.573 662.075C554.01 661.198 554.716 660.483 555.587 660.036L573.229 650.974L574.182 643.681L591.07 646.92L589.852 672.957Z" fill="#2F2E41"/>
<path d="M645.328 668.75L637.686 669.733L635.393 662.693L632.828 670.358L612.559 672.967C611.587 673.092 610.601 672.903 609.744 672.428C608.888 671.953 608.205 671.216 607.797 670.326C607.388 669.436 607.275 668.438 607.474 667.479C607.672 666.52 608.173 665.649 608.901 664.994L623.649 651.732L622.71 644.438L639.866 643.263L645.328 668.75Z" fill="#2F2E41"/>
<path d="M680.345 444.215C683.166 444.4 685.805 445.678 687.698 447.778C689.591 449.878 690.591 452.634 690.483 455.46C690.452 456.034 690.374 456.604 690.249 457.165L722.29 477.351L704.576 485.186L676.865 464.816C674.578 464.117 672.587 462.681 671.203 460.732C669.818 458.783 669.118 456.431 669.211 454.042C669.277 452.683 669.61 451.351 670.191 450.12C670.772 448.89 671.589 447.787 672.597 446.872C673.604 445.958 674.782 445.252 676.063 444.793C677.343 444.333 678.702 444.131 680.061 444.197C680.155 444.202 680.25 444.208 680.345 444.215Z" fill="#FFB6B6"/>
<path d="M711.243 468.176L703.302 484.561L734.7 504.766C736.934 506.216 739.502 507.071 742.159 507.249C744.817 507.427 747.476 506.922 749.883 505.783V505.783C752.81 504.382 755.203 502.068 756.7 499.189C758.197 496.31 758.717 493.022 758.183 489.821L747.995 431.657C747.311 427.586 745.093 423.933 741.798 421.448C738.503 418.963 734.381 417.835 730.279 418.296V418.296C728.281 418.514 726.346 419.124 724.584 420.09C722.822 421.057 721.268 422.36 720.009 423.928C718.751 425.495 717.814 427.294 717.251 429.223C716.689 431.153 716.512 433.174 716.73 435.172C716.747 435.33 716.767 435.487 716.789 435.644C716.866 436.203 716.973 436.758 717.11 437.305L728.232 478.67L711.243 468.176Z" fill="#00AF66"/>
<path d="M110.415 465.016L120.487 469.559L142.805 432.873L127.94 426.167L110.415 465.016Z" fill="#A0616A"/>
<path d="M105.32 475.362L136.292 489.334L136.468 488.943C137.911 485.746 138.024 482.106 136.783 478.826C135.542 475.545 133.049 472.892 129.852 471.449L129.852 471.449L126.131 464.604L113.639 464.135L110.935 462.915L105.32 475.362Z" fill="#2F2E41"/>
<path d="M235.159 415.125L245.796 412.139L239.34 369.685L223.639 374.093L235.159 415.125Z" fill="#A0616A"/>
<path d="M237.899 426.328L270.612 417.144L270.496 416.731C269.548 413.354 267.297 410.492 264.239 408.774C261.181 407.057 257.566 406.624 254.189 407.572L254.189 407.572L246.941 404.716L237.064 412.379L234.209 413.181L237.899 426.328Z" fill="#2F2E41"/>
<path d="M74.1584 291.076C74.4304 298.946 91.1682 320.179 99.971 323.224C101.467 323.742 102.342 324.027 102.342 324.027L105.406 323.101L142.508 311.875C149.005 315.697 168.386 317.64 184.288 318.612C196.945 319.383 204 326 204 326C207.734 354.398 218.499 375.101 230.913 400.545L245.811 397.954L231.736 303.176C231.432 301.129 230.534 299.217 229.152 297.677C227.77 296.137 225.967 295.036 223.965 294.513L122.72 268.029C122.72 268.029 117.136 267.019 105.36 272.7C85.9733 282.053 73.9641 285.35 74.1584 291.076Z" fill="#2F2E41"/>
<path d="M93.5044 289.554C90.1089 296.659 95.1407 323.223 101.541 329.991L103.239 331.146L103.814 331.446C107.653 344.431 148.851 382.413 148.851 382.413C134.935 400.141 122.534 421.768 117 446L133.091 451.88L178.385 384.261C179.572 382.49 180.194 380.402 180.171 378.27C180.148 376.138 179.48 374.064 178.255 372.319L159.776 345.998L129.667 287.675C108.152 287.011 95.9781 284.386 93.5044 289.554Z" fill="#2F2E41"/>
<path d="M74.7638 294.17C74.714 294.17 73.5346 291.083 73.5106 291.076C73.1096 290.964 67.6809 290.429 68.9018 281.441L70.4638 271.549L68.9389 262.815L66.374 260.25L70.4963 256.128L67.9699 237.432L67 200C64.5657 187.142 65.2014 175.382 76.9941 169.719L90.5138 157.179L105.898 156.993L123.351 167.34L131.808 184.198L135.088 229.886L137.537 235.6L137.327 235.79C137.311 235.805 135.679 237.28 134.946 238.092C134.591 238.596 135.257 242.361 136.08 245.558L137.134 253.45L134.476 255.35L137.932 259.432L147.354 275.356L146.789 275.216C146.153 275.058 140.228 283.951 75.1992 293.841C74.8991 293.886 74.8886 294.17 74.7638 294.17Z" fill="#00AF66"/>
<path d="M149.227 195.292L143.843 192.483C142.999 192.041 142.364 191.282 142.078 190.373C141.792 189.464 141.879 188.478 142.319 187.632L155.208 162.932C155.65 162.087 156.409 161.452 157.318 161.167C158.227 160.881 159.213 160.967 160.059 161.407L165.442 164.217C166.287 164.658 166.921 165.417 167.207 166.327C167.493 167.236 167.406 168.222 166.966 169.067L154.077 193.768C153.635 194.613 152.877 195.247 151.967 195.533C151.058 195.819 150.072 195.732 149.227 195.292Z" fill="#3F3D56"/>
<path d="M158.771 162.339C158.316 162.101 157.784 162.055 157.294 162.209C156.804 162.363 156.395 162.705 156.157 163.16L143.268 187.861C143.031 188.316 142.985 188.847 143.139 189.338C143.293 189.828 143.635 190.237 144.09 190.475L149.473 193.284C149.929 193.521 150.46 193.568 150.95 193.414C151.44 193.26 151.849 192.917 152.087 192.462L164.976 167.762C165.213 167.306 165.26 166.775 165.106 166.285C164.952 165.795 164.61 165.386 164.155 165.148L158.771 162.339Z" fill="#0081A6"/>
<path d="M101.672 153.621C113.82 153.621 123.668 143.773 123.668 131.625C123.668 119.477 113.82 109.629 101.672 109.629C89.5244 109.629 79.6765 119.477 79.6765 131.625C79.6765 143.773 89.5244 153.621 101.672 153.621Z" fill="#A0616A"/>
<path d="M90.8541 145.792C89.8897 145.025 88.6868 144.621 87.455 144.651C87.0729 144.714 86.7084 144.857 86.3858 145.071C86.0632 145.285 85.7897 145.566 85.5836 145.893C85.469 146.038 85.3203 146.151 85.1509 146.223C84.9815 146.295 84.7968 146.324 84.6136 146.306C82.2666 146.392 77.264 142.038 76.9219 133.637C76.7593 129.644 74.3704 122.888 78.1734 119.229C78.4283 117.752 81.3979 102.489 94.7839 102.069C108.488 101.633 117.611 104.386 119.803 109.609C121.325 113.756 122.482 118.028 123.261 122.376L123.72 124.961L122.646 122.565C122.626 122.52 120.668 118.23 117.036 116.799C116.977 117.497 116.799 118.18 116.511 118.818C115.326 121.387 112.339 123.063 108.9 123.089C106.524 123.015 104.182 122.512 101.986 121.602C102.234 121.961 102.374 122.384 102.388 122.82C102.401 123.256 102.289 123.687 102.063 124.061C101.837 124.435 101.508 124.735 101.116 124.926C100.723 125.117 100.284 125.191 99.8505 125.137L99.2148 125.058C99.0144 125.033 98.8117 125.079 98.6417 125.188C98.4717 125.297 98.3451 125.462 98.284 125.654C98.2229 125.847 98.2311 126.054 98.3071 126.241C98.3831 126.428 98.5222 126.583 98.7002 126.678L99.2599 126.977L98.5806 127.306C95.8461 128.526 93.5929 130.618 92.1734 133.254C90.7538 135.89 90.248 138.923 90.7349 141.877L91.5269 146.332L90.8541 145.792Z" fill="#2F2E41"/>
<path d="M439.11 485.679C438.508 485.707 437.913 485.549 437.404 485.227C436.895 484.905 436.498 484.434 436.266 483.878C436.033 483.323 435.977 482.709 436.106 482.121C436.234 481.532 436.539 480.998 436.982 480.589L437.183 479.789C437.156 479.725 437.13 479.661 437.103 479.597C436.497 478.165 435.481 476.945 434.184 476.089C432.887 475.233 431.365 474.779 429.811 474.785C428.257 474.791 426.739 475.256 425.448 476.121C424.157 476.987 423.15 478.215 422.555 479.651C420.176 485.381 417.146 491.122 416.401 497.181C416.072 499.859 416.211 502.574 416.81 505.205C411.222 493.015 408.32 479.765 408.301 466.355C408.3 462.989 408.487 459.627 408.861 456.282C409.17 453.541 409.599 450.819 410.148 448.116C413.144 433.452 419.575 419.708 428.913 408.012C433.433 405.546 437.088 401.753 439.387 397.146C440.219 395.489 440.808 393.721 441.134 391.896C440.624 391.963 440.105 392.005 439.596 392.038C439.437 392.047 439.27 392.055 439.111 392.064L439.051 392.066C438.491 392.091 437.935 391.954 437.451 391.671C436.967 391.387 436.575 390.97 436.322 390.469C436.07 389.968 435.967 389.405 436.028 388.847C436.088 388.29 436.308 387.761 436.661 387.326C436.881 387.055 437.102 386.784 437.322 386.513C437.656 386.095 437.999 385.686 438.333 385.268C438.372 385.228 438.408 385.186 438.442 385.143C438.827 384.666 439.211 384.198 439.596 383.722C438.894 382.632 437.95 381.72 436.837 381.055C432.984 378.798 427.668 380.362 424.884 383.847C422.093 387.332 421.566 392.222 422.536 396.577C423.489 400.283 425.066 403.799 427.2 406.975C426.991 407.243 426.774 407.502 426.565 407.769C422.745 412.681 419.415 417.956 416.624 423.517C417.303 417.287 416.493 410.984 414.261 405.128C411.998 399.67 407.758 395.074 404.024 390.355C399.538 384.688 390.34 387.162 389.55 394.346C389.543 394.415 389.535 394.485 389.528 394.554C390.082 394.867 390.625 395.199 391.157 395.551C391.824 395.997 392.341 396.634 392.64 397.378C392.939 398.123 393.006 398.941 392.833 399.725C392.659 400.508 392.253 401.221 391.667 401.77C391.082 402.319 390.344 402.678 389.55 402.8L389.469 402.813C389.667 404.812 390.016 406.793 390.514 408.739C391.957 414.172 394.507 419.248 398.003 423.649C401.5 428.051 405.868 431.682 410.834 434.316C411.16 434.483 411.477 434.65 411.803 434.809C408.999 442.756 407.24 451.033 406.571 459.434C406.192 464.389 406.214 469.368 406.638 474.32L406.613 474.145C405.543 468.638 402.605 463.669 398.296 460.077C391.896 454.82 382.853 452.884 375.949 448.657C375.215 448.186 374.362 447.935 373.49 447.933C372.617 447.931 371.763 448.178 371.027 448.646C370.291 449.113 369.704 449.781 369.335 450.572C368.966 451.362 368.831 452.241 368.946 453.105C368.955 453.167 368.964 453.229 368.974 453.29C370.003 453.709 371.005 454.192 371.975 454.736C372.529 455.049 373.072 455.381 373.604 455.732C374.271 456.178 374.788 456.815 375.087 457.56C375.386 458.305 375.453 459.123 375.28 459.906C375.106 460.69 374.7 461.403 374.114 461.952C373.529 462.5 372.791 462.86 371.997 462.982L371.916 462.994C371.858 463.003 371.808 463.011 371.749 463.019C373.508 467.219 375.976 471.084 379.046 474.446C382.838 478.515 387.422 481.767 392.516 484.002C397.61 486.237 403.106 487.408 408.669 487.443H408.677C410.187 494.005 412.375 500.391 415.205 506.501H438.526C438.609 506.242 438.685 505.974 438.76 505.715C436.601 505.851 434.434 505.722 432.307 505.33C434.037 503.207 435.767 501.068 437.498 498.945C437.536 498.905 437.572 498.863 437.606 498.819C438.484 497.733 439.37 496.654 440.248 495.568L440.248 495.566C440.295 492.236 439.913 488.913 439.111 485.679L439.11 485.679Z" fill="#00AF66"/>
<path d="M551.208 124.067C551.659 124.467 551.975 124.996 552.114 125.582C552.254 126.168 552.21 126.782 551.989 127.342C551.767 127.902 551.379 128.38 550.877 128.712C550.374 129.044 549.782 129.214 549.18 129.198L548.477 129.63C548.452 129.695 548.426 129.759 548.401 129.824C547.836 131.272 547.711 132.855 548.043 134.373C548.374 135.892 549.147 137.278 550.264 138.359C551.381 139.44 552.793 140.166 554.322 140.448C555.85 140.729 557.428 140.552 558.857 139.939C564.56 137.496 570.736 135.499 575.499 131.681C577.604 129.992 579.4 127.951 580.807 125.648C576.3 138.279 569.131 149.793 559.784 159.41C557.436 161.82 554.955 164.098 552.353 166.232C550.218 167.979 548.011 169.629 545.731 171.181C533.351 179.592 519.153 184.946 504.302 186.804C499.344 185.416 494.079 185.58 489.217 187.276C487.465 187.881 485.81 188.736 484.302 189.816C484.714 190.124 485.115 190.456 485.503 190.787C485.623 190.892 485.748 191.003 485.868 191.108L485.913 191.148C486.331 191.521 486.633 192.007 486.782 192.548C486.931 193.089 486.921 193.661 486.752 194.196C486.583 194.731 486.263 195.206 485.831 195.563C485.399 195.92 484.872 196.145 484.315 196.21C483.968 196.251 483.622 196.291 483.275 196.331C482.744 196.397 482.213 196.451 481.681 196.517C481.626 196.518 481.571 196.523 481.516 196.531C480.908 196.604 480.306 196.671 479.698 196.743C479.44 198.013 479.48 199.326 479.813 200.578C480.997 204.884 485.895 207.475 490.321 206.921C494.753 206.374 498.543 203.24 500.888 199.444C502.792 196.125 504.116 192.506 504.805 188.743C505.142 188.697 505.478 188.663 505.815 188.617C511.978 187.766 518.044 186.312 523.924 184.278C519.09 188.266 515.271 193.345 512.782 199.096C510.593 204.584 510.422 210.835 509.803 216.821C509.059 224.01 517.373 228.658 522.953 224.065C523.007 224.021 523.061 223.976 523.114 223.931C522.936 223.32 522.779 222.703 522.643 222.081C522.477 221.296 522.551 220.479 522.857 219.736C523.162 218.994 523.685 218.362 524.356 217.922C525.028 217.482 525.816 217.255 526.619 217.271C527.421 217.286 528.2 217.544 528.853 218.01L528.92 218.058C530.174 216.489 531.307 214.826 532.308 213.085C535.067 208.187 536.784 202.772 537.352 197.18C537.92 191.588 537.327 185.938 535.609 180.586C535.492 180.239 535.381 179.897 535.259 179.556C542.813 175.822 549.85 171.122 556.193 165.574C559.923 162.289 563.382 158.708 566.535 154.866L566.43 155.009C563.353 159.7 561.989 165.308 562.568 170.888C563.482 179.121 568.606 186.818 570.601 194.664C570.798 195.513 571.233 196.289 571.856 196.899C572.479 197.509 573.264 197.929 574.117 198.108C574.971 198.287 575.857 198.218 576.673 197.909C577.489 197.601 578.199 197.065 578.72 196.366C578.757 196.316 578.793 196.265 578.829 196.214C578.384 195.196 578.004 194.15 577.689 193.085C577.511 192.473 577.354 191.856 577.218 191.234C577.052 190.449 577.126 189.632 577.432 188.89C577.737 188.148 578.26 187.515 578.931 187.075C579.602 186.635 580.391 186.408 581.193 186.424C581.996 186.44 582.775 186.697 583.428 187.164L583.495 187.211C583.543 187.246 583.585 187.275 583.632 187.31C585.304 183.075 586.234 178.584 586.382 174.034C586.506 168.473 585.493 162.945 583.406 157.789C581.318 152.633 578.199 147.958 574.24 144.051L574.234 144.045C577.732 138.292 580.623 132.191 582.86 125.841L566.16 109.564C565.919 109.691 565.679 109.83 565.444 109.963C567.084 111.373 568.546 112.978 569.797 114.742C567.076 115.055 564.343 115.38 561.622 115.693C561.567 115.694 561.512 115.699 561.457 115.707C560.07 115.872 558.683 116.026 557.296 116.192L557.295 116.192C554.936 118.545 552.891 121.191 551.208 124.066L551.208 124.067Z" fill="#00AF66"/>
<path d="M149.163 189.344L128.134 213.236L140.076 224.742C140.076 224.742 157.397 196.32 157.972 195.221C159.564 194.994 161.049 194.289 162.231 193.2C163.414 192.11 164.237 190.688 164.593 189.12C164.949 187.552 164.821 185.913 164.225 184.42C163.63 182.927 162.595 181.649 161.258 180.757C159.92 179.865 158.344 179.4 156.736 179.423C155.128 179.446 153.566 179.957 152.255 180.888C150.944 181.818 149.947 183.125 149.395 184.635C148.842 186.145 148.762 187.787 149.163 189.344V189.344Z" fill="#A0616A"/>
<path d="M75.7053 174.848C76.1383 199.786 95.0667 220.314 109.411 242.826C111.523 244.222 113.904 245.161 116.4 245.584C118.896 246.007 121.452 245.904 123.907 245.283C126.361 244.661 128.658 243.535 130.652 241.975C132.646 240.415 134.293 238.456 135.486 236.223L148.065 213.001L132.057 208.519L123.565 214.092L105.849 193.288L75.7053 174.848Z" fill="#00AF66"/>
</g>
<defs>
<clipPath id="clip0_101_43">
<rect width="867" height="673.005" fill="white"/>
</clipPath>
</defs>
</svg>
